<svg xmlns="http://www.w3.org/2000/svg" xmlns:xlink="http://www.w3.org/1999/xlink" width="500" zoomAndPan="magnify" viewBox="0 0 375 374.999991" height="500" preserveAspectRatio="xMidYMid meet" version="1.0"><defs><clipPath id="0fe427c2bc"><path d="M 142 66 L 353.65625 66 L 353.65625 279 L 142 279 Z M 142 66 " clip-rule="nonzero"/></clipPath><clipPath id="5dfd8e9074"><path d="M 21.40625 187 L 173 187 L 173 339 L 21.40625 339 Z M 21.40625 187 " clip-rule="nonzero"/></clipPath></defs><path fill="#ffcc66" d="M 110.425781 44.855469 C 107.867188 39.738281 102.636719 36.507812 96.917969 36.507812 C 91.195312 36.507812 85.96875 39.738281 83.410156 44.855469 L 77.3125 57.050781 C 72.414062 66.847656 71.3125 68.648438 69.980469 69.980469 C 68.648438 71.3125 66.847656 72.414062 57.050781 77.3125 L 44.855469 83.410156 C 39.738281 85.96875 36.507812 91.195312 36.507812 96.917969 C 36.507812 102.636719 39.738281 107.867188 44.855469 110.425781 L 57.050781 116.523438 C 66.847656 121.421875 68.648438 122.519531 69.980469 123.851562 C 71.3125 125.1875 72.414062 126.984375 77.3125 136.785156 L 83.410156 148.976562 C 85.96875 154.09375 91.195312 157.324219 96.917969 157.324219 C 102.636719 157.324219 107.867188 154.09375 110.425781 148.976562 L 116.523438 136.785156 C 121.421875 126.984375 122.519531 125.1875 123.851562 123.851562 C 125.1875 122.519531 126.984375 121.421875 136.785156 116.523438 L 148.976562 110.425781 C 154.09375 107.867188 157.324219 102.636719 157.324219 96.917969 C 157.324219 91.195312 154.09375 85.96875 148.976562 83.410156 L 136.785156 77.3125 C 126.984375 72.414062 125.1875 71.3125 123.851562 69.980469 C 122.519531 68.648438 121.421875 66.847656 116.523438 57.050781 Z M 110.425781 44.855469 " fill-opacity="1" fill-rule="nonzero"/><g clip-path="url(#0fe427c2bc)"><path fill="#ffcc66" d="M 261.445312 75.0625 C 258.890625 69.945312 253.660156 66.710938 247.941406 66.710938 C 242.21875 66.710938 236.992188 69.945312 234.433594 75.0625 L 222.238281 99.449219 C 212.875 118.171875 209.546875 124.433594 204.746094 129.234375 C 199.945312 134.035156 193.683594 137.363281 174.960938 146.726562 L 150.570312 158.921875 C 145.457031 161.480469 142.222656 166.707031 142.222656 172.429688 C 142.222656 178.148438 145.457031 183.378906 150.570312 185.9375 L 174.960938 198.128906 C 193.683594 207.492188 199.945312 210.824219 204.746094 215.621094 C 209.546875 220.421875 212.875 226.683594 222.238281 245.410156 L 234.433594 269.796875 C 236.992188 274.914062 242.21875 278.144531 247.941406 278.144531 C 253.660156 278.144531 258.890625 274.914062 261.445312 269.796875 L 273.640625 245.410156 C 283.003906 226.683594 286.335938 220.421875 291.132812 215.621094 C 295.933594 210.824219 302.195312 207.492188 320.917969 198.128906 L 345.308594 185.9375 C 350.421875 183.378906 353.65625 178.148438 353.65625 172.429688 C 353.65625 166.707031 350.421875 161.480469 345.308594 158.921875 L 320.917969 146.726562 C 302.195312 137.363281 295.933594 134.035156 291.132812 129.234375 C 286.335938 124.433594 283.003906 118.171875 273.640625 99.449219 Z M 261.445312 75.0625 " fill-opacity="1" fill-rule="nonzero"/></g><g clip-path="url(#5dfd8e9074)"><path fill="#e7b95d" d="M 110.425781 195.878906 C 107.867188 190.761719 102.636719 187.53125 96.917969 187.53125 C 91.195312 187.53125 85.96875 190.761719 83.410156 195.878906 L 81.285156 200.128906 C 71.921875 218.855469 68.589844 225.117188 63.789062 229.917969 C 58.992188 234.714844 52.730469 238.046875 34.003906 247.40625 L 29.753906 249.535156 C 24.636719 252.09375 21.40625 257.320312 21.40625 263.042969 C 21.40625 268.761719 24.636719 273.992188 29.753906 276.550781 L 34.003906 278.675781 C 52.730469 288.039062 58.992188 291.371094 63.789062 296.167969 C 68.589844 300.964844 71.921875 307.226562 81.285156 325.953125 L 83.410156 330.203125 C 85.96875 335.320312 91.195312 338.554688 96.917969 338.554688 C 102.636719 338.554688 107.867188 335.320312 110.425781 330.203125 L 112.550781 325.953125 C 121.914062 307.226562 125.242188 300.964844 130.042969 296.167969 C 134.84375 291.371094 141.105469 288.039062 159.828125 278.675781 L 164.078125 276.550781 C 169.195312 273.992188 172.429688 268.761719 172.429688 263.042969 C 172.429688 257.320312 169.195312 252.09375 164.078125 249.535156 L 159.828125 247.40625 C 141.105469 238.046875 134.84375 234.714844 130.042969 229.917969 C 125.242188 225.117188 121.914062 218.855469 112.550781 200.128906 Z M 110.425781 195.878906 " fill-opacity="1" fill-rule="nonzero"/></g></svg>