<svg xmlns="http://www.w3.org/2000/svg" xmlns:xlink="http://www.w3.org/1999/xlink" width="500" zoomAndPan="magnify" viewBox="0 0 375 374.999991" height="500" preserveAspectRatio="xMidYMid meet" version="1.0"><defs><clipPath id="9863470ca3"><path d="M 13.191406 37.5 L 361.941406 37.5 L 361.941406 327.75 L 13.191406 327.75 Z M 13.191406 37.5 " clip-rule="nonzero"/></clipPath></defs><g clip-path="url(#9863470ca3)"><path fill="#ffd52e" d="M 126.792969 39.941406 C 126.414062 38.425781 124.972656 37.519531 123.457031 37.898438 C 122.472656 38.125 121.640625 38.957031 121.410156 39.941406 C 116.5625 58.132812 104.585938 91.703125 78.214844 112.242188 C 59.875 126.488281 38.429688 136.339844 15.691406 140.964844 C 14.175781 141.265625 13.191406 142.707031 13.496094 144.222656 C 13.722656 145.285156 14.480469 146.042969 15.464844 146.34375 C 33.957031 151.496094 66.089844 162.789062 82.382812 181.964844 C 95.265625 197.121094 106.710938 235.089844 111.710938 253.65625 C 112.167969 255.09375 113.683594 256.003906 115.121094 255.550781 C 116.03125 255.324219 116.789062 254.566406 117.015625 253.65625 C 122.167969 234.785156 135.507812 195.757812 160.441406 179.160156 C 182.722656 164.304688 207.503906 156.878906 221.523438 153.542969 C 223.039062 153.164062 223.871094 151.648438 223.492188 150.132812 C 223.265625 149.222656 222.585938 148.464844 221.675781 148.238281 C 204.773438 143.238281 173.324219 131.945312 160.441406 115.046875 C 140.433594 88.824219 130.886719 57.222656 126.792969 39.941406 Z M 266.917969 195.679688 C 266.691406 194.769531 265.78125 194.242188 264.871094 194.46875 C 264.265625 194.621094 263.8125 195.074219 263.660156 195.679688 C 260.703125 206.820312 253.351562 227.359375 237.210938 239.863281 C 225.996094 248.578125 212.882812 254.566406 198.941406 257.367188 C 198.03125 257.519531 197.425781 258.429688 197.652344 259.339844 C 197.804688 259.945312 198.257812 260.476562 198.863281 260.628906 C 210.15625 263.8125 229.859375 270.632812 239.789062 282.378906 C 247.667969 291.625 254.640625 314.890625 257.75 326.257812 C 257.976562 327.167969 258.960938 327.695312 259.792969 327.46875 C 260.402344 327.316406 260.78125 326.863281 261.007812 326.257812 C 264.191406 314.738281 272.300781 290.867188 287.53125 280.710938 C 301.171875 271.617188 316.332031 267.070312 324.894531 265.023438 C 325.804688 264.796875 326.332031 263.886719 326.105469 262.976562 C 325.953125 262.371094 325.5 261.917969 324.96875 261.765625 C 314.585938 258.65625 295.414062 251.835938 287.53125 241.453125 C 275.253906 225.613281 269.417969 206.289062 266.917969 195.679688 Z M 322.316406 68.96875 C 322.164062 68.363281 321.558594 67.984375 320.953125 68.132812 C 320.574219 68.210938 320.269531 68.511719 320.121094 68.96875 C 318.148438 76.394531 313.296875 89.960938 302.539062 98.296875 C 295.109375 104.054688 286.394531 108.074219 277.148438 109.96875 C 276.542969 110.121094 276.164062 110.648438 276.238281 111.257812 C 276.316406 111.710938 276.617188 112.015625 277.074219 112.089844 C 284.578125 114.210938 297.609375 118.757812 304.28125 126.566406 C 309.507812 132.703125 314.132812 148.164062 316.179688 155.664062 C 316.332031 156.273438 316.9375 156.574219 317.542969 156.421875 C 317.921875 156.347656 318.226562 156.042969 318.300781 155.664062 C 320.421875 148.011719 325.804688 132.171875 335.957031 125.429688 C 344.976562 119.363281 355.054688 116.410156 360.816406 115.046875 C 361.421875 114.894531 361.800781 114.289062 361.648438 113.679688 C 361.574219 113.300781 361.269531 113 360.890625 112.847656 C 353.996094 110.800781 341.261719 106.253906 336.035156 99.359375 C 327.925781 88.824219 323.984375 76.015625 322.316406 68.96875 Z M 322.316406 68.96875 " fill-opacity="1" fill-rule="nonzero"/></g></svg>